# xmcd
#
# Track frame offsets:
# 150
# 17037
# 31632
# 44547
# 58332
# 72300
# 87332
# 102487
# 118395
# 130747
# 145175
# 161970
#
# Disc length: 2378 seconds
#
#
# Revision: 1
# Processed by: cddbd v1.5PL3 Copyright (c) Steve Scherf et al.
# Submitted via: FreeRIP 2.60 
#
DISCID=b009480c
DTITLE=Vera Martinova - Dal jen vejdi
DYEAR=1989
DGENRE=Country
TTITLE0=Dal jen vejdi
TTITLE1=Brzy bude rano
TTITLE2=Zitra dalsi vlaky pojedou
TTITLE3=Kun, co vyhral nejslavnejsi steeple chase
TTITLE4=Maly dum nad skalou
TTITLE5=Az na vrcholky hor
TTITLE6=Nocni blues
TTITLE7=Zadny
TTITLE8=Na cestach
TTITLE9=Posledni rallye
TTITLE10=Toulavy dziny
TTITLE11=Rodeo je jako svet
EXTD=
EXTT0=
EXTT1=
EXTT2=
EXTT3=
EXTT4=
EXTT5=
EXTT6=
EXTT7=
EXTT8=
EXTT9=
EXTT10=
EXTT11=
PLAYORDER=
